<svg viewBox="0 0 330 200" xmlns="http://www.w3.org/2000/svg"><g><g><g><g><g><line x1="51.41600036621094" y1="177.95999908447266" x2="46.41600036621094" y2="177.95999908447266" style="visibility: inherit;" fill="rgb(0, 0, 0)" stroke="rgb(204, 204, 204)" stroke-width="1px"></line><line x1="51.41600036621094" y1="163.1299991607666" x2="46.41600036621094" y2="163.1299991607666" style="visibility: inherit;" fill="rgb(0, 0, 0)" stroke="rgb(204, 204, 204)" stroke-width="1px"></line><line x1="51.41600036621094" y1="148.29999923706055" x2="46.41600036621094" y2="148.29999923706055" style="visibility: inherit;" fill="rgb(0, 0, 0)" stroke="rgb(204, 204, 204)" stroke-width="1px"></line><line x1="51.41600036621094" y1="133.4699993133545" x2="46.41600036621094" y2="133.4699993133545" style="visibility: inherit;" fill="rgb(0, 0, 0)" stroke="rgb(204, 204, 204)" stroke-width="1px"></line><line x1="51.41600036621094" y1="118.63999938964844" x2="46.41600036621094" y2="118.63999938964844" style="visibility: inherit;" fill="rgb(0, 0, 0)" stroke="rgb(204, 204, 204)" stroke-width="1px"></line><line x1="51.41600036621094" y1="103.80999946594238" x2="46.41600036621094" y2="103.80999946594238" style="visibility: inherit;" fill="rgb(0, 0, 0)" stroke="rgb(204, 204, 204)" stroke-width="1px"></line><line x1="51.41600036621094" y1="88.97999954223634" x2="46.41600036621094" y2="88.97999954223634" style="visibility: inherit;" fill="rgb(0, 0, 0)" stroke="rgb(204, 204, 204)" stroke-width="1px"></line><line x1="51.41600036621094" y1="74.14999961853029" x2="46.41600036621094" y2="74.14999961853029" style="visibility: inherit;" fill="rgb(0, 0, 0)" stroke="rgb(204, 204, 204)" stroke-width="1px"></line><line x1="51.41600036621094" y1="59.31999969482425" x2="46.41600036621094" y2="59.31999969482425" style="visibility: inherit;" fill="rgb(0, 0, 0)" stroke="rgb(204, 204, 204)" stroke-width="1px"></line><line x1="51.41600036621094" y1="44.48999977111819" x2="46.41600036621094" y2="44.48999977111819" style="visibility: inherit;" fill="rgb(0, 0, 0)" stroke="rgb(204, 204, 204)" stroke-width="1px"></line><line x1="51.41600036621094" y1="29.65999984741211" x2="46.41600036621094" y2="29.65999984741211" style="visibility: inherit;" fill="rgb(0, 0, 0)" stroke="rgb(204, 204, 204)" stroke-width="1px"></line><line x1="51.41600036621094" y1="14.829999923706055" x2="46.41600036621094" y2="14.829999923706055" style="visibility: inherit;" fill="rgb(0, 0, 0)" stroke="rgb(204, 204, 204)" stroke-width="1px"></line><line x1="51.41600036621094" y1="0" x2="46.41600036621094" y2="0" style="visibility: inherit;" fill="rgb(0, 0, 0)" stroke="rgb(204, 204, 204)" stroke-width="1px"></line></g><g transform="translate(41.41600036621094, 0)"><text style="text-anchor: end; visibility: hidden; font-family: &quot;Helvetica Neue&quot;, sans-serif; font-size: 12px; font-weight: 200;" x="0" y="177.95999908447266" dx="0em" dy="0.3em" fill="rgb(50, 49, 63)" stroke="none" stroke-width="1px">-0.1</text><text style="text-anchor: end; visibility: inherit; font-family: &quot;Helvetica Neue&quot;, sans-serif; font-size: 12px; font-weight: 200;" x="0" y="163.1299991607666" dx="0em" dy="0.3em" fill="rgb(50, 49, 63)" stroke="none" stroke-width="1px">0</text><text style="text-anchor: end; visibility: hidden; font-family: &quot;Helvetica Neue&quot;, sans-serif; font-size: 12px; font-weight: 200;" x="0" y="148.29999923706055" dx="0em" dy="0.3em" fill="rgb(50, 49, 63)" stroke="none" stroke-width="1px">0.1</text><text style="text-anchor: end; visibility: inherit; font-family: &quot;Helvetica Neue&quot;, sans-serif; font-size: 12px; font-weight: 200;" x="0" y="133.4699993133545" dx="0em" dy="0.3em" fill="rgb(50, 49, 63)" stroke="none" stroke-width="1px">0.2</text><text style="text-anchor: end; visibility: hidden; font-family: &quot;Helvetica Neue&quot;, sans-serif; font-size: 12px; font-weight: 200;" x="0" y="118.63999938964844" dx="0em" dy="0.3em" fill="rgb(50, 49, 63)" stroke="none" stroke-width="1px">0.3</text><text style="text-anchor: end; visibility: inherit; font-family: &quot;Helvetica Neue&quot;, sans-serif; font-size: 12px; font-weight: 200;" x="0" y="103.80999946594238" dx="0em" dy="0.3em" fill="rgb(50, 49, 63)" stroke="none" stroke-width="1px">0.4</text><text style="text-anchor: end; visibility: hidden; font-family: &quot;Helvetica Neue&quot;, sans-serif; font-size: 12px; font-weight: 200;" x="0" y="88.97999954223634" dx="0em" dy="0.3em" fill="rgb(50, 49, 63)" stroke="none" stroke-width="1px">0.5</text><text style="text-anchor: end; visibility: inherit; font-family: &quot;Helvetica Neue&quot;, sans-serif; font-size: 12px; font-weight: 200;" x="0" y="74.14999961853029" dx="0em" dy="0.3em" fill="rgb(50, 49, 63)" stroke="none" stroke-width="1px">0.6</text><text style="text-anchor: end; visibility: hidden; font-family: &quot;Helvetica Neue&quot;, sans-serif; font-size: 12px; font-weight: 200;" x="0" y="59.31999969482425" dx="0em" dy="0.3em" fill="rgb(50, 49, 63)" stroke="none" stroke-width="1px">0.7</text><text style="text-anchor: end; visibility: inherit; font-family: &quot;Helvetica Neue&quot;, sans-serif; font-size: 12px; font-weight: 200;" x="0" y="44.48999977111819" dx="0em" dy="0.3em" fill="rgb(50, 49, 63)" stroke="none" stroke-width="1px">0.8</text><text style="text-anchor: end; visibility: hidden; font-family: &quot;Helvetica Neue&quot;, sans-serif; font-size: 12px; font-weight: 200;" x="0" y="29.65999984741211" dx="0em" dy="0.3em" fill="rgb(50, 49, 63)" stroke="none" stroke-width="1px">0.9</text><text style="text-anchor: end; visibility: inherit; font-family: &quot;Helvetica Neue&quot;, sans-serif; font-size: 12px; font-weight: 200;" x="0" y="14.829999923706055" dx="0em" dy="0.3em" fill="rgb(50, 49, 63)" stroke="none" stroke-width="1px">1</text><text style="text-anchor: end; visibility: hidden; font-family: &quot;Helvetica Neue&quot;, sans-serif; font-size: 12px; font-weight: 200;" x="0" y="0" dx="0em" dy="0.3em" fill="rgb(50, 49, 63)" stroke="none" stroke-width="1px">1.1</text></g><line x1="51.41600036621094" y1="0" x2="51.41600036621094" y2="177.95999908447266" fill="rgb(0, 0, 0)" stroke="rgb(204, 204, 204)" stroke-width="1px"></line></g></g><g transform="translate(51, 0)" clip-path="url(#clip_0)"><clipPath id="clip_0"><rect width="278" height="177"></rect></clipPath><g><g><g><line x1="0" y1="0" x2="0" y2="177.95999908447266" fill="rgb(0, 0, 0)" stroke="rgb(60, 60, 60)" stroke-width="1px" opacity="0.25"></line><line x1="23.215333302815754" y1="0" x2="23.215333302815754" y2="177.95999908447266" fill="rgb(0, 0, 0)" stroke="rgb(60, 60, 60)" stroke-width="1px" opacity="0.25"></line><line x1="46.43066660563151" y1="0" x2="46.43066660563151" y2="177.95999908447266" fill="rgb(0, 0, 0)" stroke="rgb(60, 60, 60)" stroke-width="1px" opacity="0.25"></line><line x1="69.64599990844727" y1="0" x2="69.64599990844727" y2="177.95999908447266" fill="rgb(0, 0, 0)" stroke="rgb(60, 60, 60)" stroke-width="1px" opacity="0.25"></line><line x1="92.86133321126302" y1="0" x2="92.86133321126302" y2="177.95999908447266" fill="rgb(0, 0, 0)" stroke="rgb(60, 60, 60)" stroke-width="1px" opacity="0.25"></line><line x1="116.07666651407878" y1="0" x2="116.07666651407878" y2="177.95999908447266" fill="rgb(0, 0, 0)" stroke="rgb(60, 60, 60)" stroke-width="1px" opacity="0.25"></line><line x1="139.29199981689453" y1="0" x2="139.29199981689453" y2="177.95999908447266" fill="rgb(0, 0, 0)" stroke="rgb(60, 60, 60)" stroke-width="1px" opacity="0.25"></line><line x1="162.5073331197103" y1="0" x2="162.5073331197103" y2="177.95999908447266" fill="rgb(0, 0, 0)" stroke="rgb(60, 60, 60)" stroke-width="1px" opacity="0.25"></line><line x1="185.72266642252603" y1="0" x2="185.72266642252603" y2="177.95999908447266" fill="rgb(0, 0, 0)" stroke="rgb(60, 60, 60)" stroke-width="1px" opacity="0.25"></line><line x1="208.9379997253418" y1="0" x2="208.9379997253418" y2="177.95999908447266" fill="rgb(0, 0, 0)" stroke="rgb(60, 60, 60)" stroke-width="1px" opacity="0.25"></line><line x1="232.15333302815756" y1="0" x2="232.15333302815756" y2="177.95999908447266" fill="rgb(0, 0, 0)" stroke="rgb(60, 60, 60)" stroke-width="1px" opacity="0.25"></line><line x1="255.3686663309733" y1="0" x2="255.3686663309733" y2="177.95999908447266" fill="rgb(0, 0, 0)" stroke="rgb(60, 60, 60)" stroke-width="1px" opacity="0.25"></line><line x1="278.58399963378906" y1="0" x2="278.58399963378906" y2="177.95999908447266" fill="rgb(0, 0, 0)" stroke="rgb(60, 60, 60)" stroke-width="1px" opacity="0.25"></line></g><g><line x1="0" y1="177.95999908447266" x2="278.58399963378906" y2="177.95999908447266" fill="rgb(0, 0, 0)" stroke="rgb(60, 60, 60)" stroke-width="1px" opacity="0.25"></line><line x1="0" y1="163.1299991607666" x2="278.58399963378906" y2="163.1299991607666" fill="rgb(0, 0, 0)" stroke="rgb(60, 60, 60)" stroke-width="1px" opacity="0.25"></line><line x1="0" y1="148.29999923706055" x2="278.58399963378906" y2="148.29999923706055" fill="rgb(0, 0, 0)" stroke="rgb(60, 60, 60)" stroke-width="1px" opacity="0.25"></line><line x1="0" y1="133.4699993133545" x2="278.58399963378906" y2="133.4699993133545" fill="rgb(0, 0, 0)" stroke="rgb(60, 60, 60)" stroke-width="1px" opacity="0.25"></line><line x1="0" y1="118.63999938964844" x2="278.58399963378906" y2="118.63999938964844" fill="rgb(0, 0, 0)" stroke="rgb(60, 60, 60)" stroke-width="1px" opacity="0.25"></line><line x1="0" y1="103.80999946594238" x2="278.58399963378906" y2="103.80999946594238" fill="rgb(0, 0, 0)" stroke="rgb(60, 60, 60)" stroke-width="1px" opacity="0.25"></line><line x1="0" y1="88.97999954223634" x2="278.58399963378906" y2="88.97999954223634" fill="rgb(0, 0, 0)" stroke="rgb(60, 60, 60)" stroke-width="1px" opacity="0.25"></line><line x1="0" y1="74.14999961853029" x2="278.58399963378906" y2="74.14999961853029" fill="rgb(0, 0, 0)" stroke="rgb(60, 60, 60)" stroke-width="1px" opacity="0.25"></line><line x1="0" y1="59.31999969482425" x2="278.58399963378906" y2="59.31999969482425" fill="rgb(0, 0, 0)" stroke="rgb(60, 60, 60)" stroke-width="1px" opacity="0.25"></line><line x1="0" y1="44.48999977111819" x2="278.58399963378906" y2="44.48999977111819" fill="rgb(0, 0, 0)" stroke="rgb(60, 60, 60)" stroke-width="1px" opacity="0.25"></line><line x1="0" y1="29.65999984741211" x2="278.58399963378906" y2="29.65999984741211" fill="rgb(0, 0, 0)" stroke="rgb(60, 60, 60)" stroke-width="1px" opacity="0.25"></line><line x1="0" y1="14.829999923706055" x2="278.58399963378906" y2="14.829999923706055" fill="rgb(0, 0, 0)" stroke="rgb(60, 60, 60)" stroke-width="1px" opacity="0.25"></line><line x1="0" y1="0" x2="278.58399963378906" y2="0" fill="rgb(0, 0, 0)" stroke="rgb(60, 60, 60)" stroke-width="1px" opacity="0.25"></line></g></g></g><g><g><line x1="0" y1="163.1299991607666" x2="278.58399963378906" y2="163.1299991607666" fill="rgb(0, 0, 0)" stroke="rgb(153, 153, 153)" stroke-width="1.5px"></line></g></g><g><g><line x1="23.215333302815754" y1="0" x2="23.215333302815754" y2="177.95999908447266" fill="rgb(0, 0, 0)" stroke="rgb(153, 153, 153)" stroke-width="1.5px"></line></g></g><g><g><g><g><g><path style="fill: none;" stroke="rgb(255, 112, 67)" stroke-width="2px" d="M23.215333302815754,64.26333005627001L24.37609996795654,64.26333005626998L25.53686663309733,64.26333005627001L26.69763329823812,64.26333005626998L27.858399963378908,65.02906491314246L29.019166628519695,63.96703303230663L23.215333302815754,69.56587474399764L24.37609996795654,70.50264204749983L25.53686663309733,71.05453009606826L26.69763329823812,71.38208174479391L27.858399963378908,71.57734054765355L29.019166628519695,73.9805588009086L30.179933293660483,75.41913735324742L31.34069995880127,77.42274575303816L32.50146662394206,78.62390544919155L33.66223328908285,79.34423971384344L34.82299995422363,78.63534702572817L35.983766619364424,79.35097412460951L37.14453328450521,74.07610960741059L38.305299949646,74.33382833548244L39.46606661478678,72.20686694473656L40.626833279927574,70.93071997247223L41.78759994506836,70.1650425391914L42.94836661020915,68.56486450291307L44.10913327534993,67.60476253380224L45.269899940490724,65.88793111249043L46.43066660563151,64.85783413400968L47.5914332707723,64.23977662167005L48.75219993591308,63.8689423571755L49.912966601053874,63.64644188592601L51.07373326619466,63.51294163465734L52.23449993133545,63.43284149522927L53.39526659647624,63.38478141565237L54.556033261617024,63.35594536937502L23.215333302815754,85.0132589798773L24.37609996795654,98.00764690790378L25.53686663309733,109.22658795477302L26.69763329823812,110.25410584881628L27.858399963378908,105.16677166950299L29.019166628519695,98.69206280994126L30.179933293660483,95.94800754150064L23.215333302815754,117.11695797289912L24.37609996795654,128.67755906798374L25.53686663309733,123.06545855279727L26.69763329823812,116.2758898892991L27.858399963378908,112.20214869165186L29.019166628519695,109.7579039732261L30.179933293660483,108.2913571422292L31.34069995880127,107.41142904365213L32.50146662394206,106.88347218451347L33.66223328908285,106.56669806903301L34.82299995422363,106.37663359974572L35.983766619364424,106.26259491817369L37.14453328450521,106.1941717092306L38.305299949646,106.15311778386481L39.46606661478678,106.12848542864533L40.626833279927574,106.11370601551366L41.78759994506836,106.10483836763466L42.94836661020915,106.09951777890724L44.10913327534993,104.95555715270233L45.269899940490724,100.84687242232644L46.43066660563151,89.25550656098453L47.5914332707723,78.87838045740038L48.75219993591308,71.51133475440774L49.912966601053874,67.09110733261222L51.07373326619466,64.43897087953489L52.23449993133545,62.84768900768849L53.39526659647624,61.89291988458065L54.556033261617024,61.32005841071596L55.716799926757815,60.976341526397135L56.8775665918986,60.77011139580584L58.03833325703939,60.64637331745108L59.199099922180174,60.57213047043821L60.359866587320965,60.52758476223052L61.52063325246175,60.500857337305874L62.68139991760254,60.48482088235107L63.842166582743324,60.4751990093782L65.00293324788412,60.469425885594504L66.1636999130249,60.46596201132428L67.3244665781657,60.46388368676213L68.48523324330647,60.462636692024844L69.64599990844727,60.46188849518249L70.80676657358805,60.46143957707707L71.96753323872885,60.461170226213795L73.12829990386963,60.46100861569586L74.28906656901042,60.46091164938507L75.4498332341512,59.32008696450393L76.610599899292,57.49482211273305L77.77136656443278,57.540433242512705L78.93213322957357,57.56779992038048L80.09289989471435,56.443449886258975L81.25366655985515,55.76883986578606L82.41443322499593,55.36407385350233L83.57519989013672,55.121214246132084L84.7359665552775,54.975498481709934L85.8967332204183,54.88806902305663L87.05749988555908,54.83561134786467L88.21826655069987,54.80413674274948L89.37903321584066,54.78525197968035L90.53979988098145,53.6331510809967L91.70056654612223,52.941890541786506L92.86133321126302,51.38636417741817L94.02209987640381,48.1715118128603L95.1828665415446,46.24260039412556L96.34363320668538,43.944483502042544L97.50439987182617,42.56561336679272L98.66516653696696,41.738291285642845L99.82593320210775,40.101127996110705L100.98669986724853,37.97805998154922L102.14746653238932,36.704219172812344L103.30823319753011,35.939914687570194L104.4689998626709,35.48133199642493L105.62976652781168,35.20618238173776L106.79053319295248,35.04109261292547L107.95129985809326,34.94203875163808L109.11206652323405,34.882606434865664L110.27283318837483,34.84694704480222L111.43359985351563,34.82555141076412L112.59436651865641,31.390407443562196L113.7551331837972,29.329321063241025L114.91589984893798,28.092669235048305L116.07666651407878,26.20990809729051L117.23743317921956,25.080251414635825L118.39819984436035,24.402457405043037L119.55896650950113,23.99578099928732L120.71973317464193,23.75177515583391L121.88049983978271,22.46460514466719L123.0412665049235,21.692303137967144L124.2020331700643,21.228921933947106L125.36279983520508,20.95089321153509L126.52356650034586,20.784075978087884L127.68433316548665,20.68398563801955L128.84509983062745,20.623931433978555L130.00586649576823,20.587898911553964L131.16663316090902,20.566279398099198L132.3273998260498,20.553307690026344L133.4881664911906,20.545524665182626L134.6489331563314,20.540854850276418L135.80969982147215,20.538052961332653L136.97046648661293,20.536371827966406L138.13123315175375,20.53536314794667L139.29199981689453,20.53475793993482L140.45276648203532,19.39362477428554L141.6135331471761,18.708944874895963L142.77429981231688,18.298136935262193L143.9350664774577,18.051652171481948L145.09583314259848,17.903761313213806L146.25659980773926,18.955796839095086L147.41736647288005,19.587018154623877L148.57813313802083,19.965750943941146L149.73889980316162,19.052220576689336L150.8996664683024,18.504102356338194L152.06043313344318,18.17523142412756L153.221199798584,17.97790886480115L154.38196646372478,17.859515329205323L155.54273312886556,17.788479207847814L156.70349979400635,17.74585753503331L157.86426645914713,17.720284531344618L159.02503312428792,17.70494072913138L160.1857997894287,17.69573444780346L161.3465664545695,17.690210679006697L162.5073331197103,17.686896417728633L163.66809978485108,17.6849078609618L164.82886644999186,17.683714726901712L165.98963311513265,17.682998846465665L167.15039978027343,17.68256931820403L168.31116644541422,17.682311601247022L169.471933110555,17.68215697107283L170.6326997756958,17.68206419296834L171.7934664408366,17.68200852610562L172.95423310597738,17.681975125988004L174.11499977111816,17.681955085917423L175.27576643625895,17.681943061875074L176.43653310139973,17.681935847449665L177.59729976654052,17.681931518794414L178.75806643168133,17.681928921601298L179.9188330968221,17.681927363285382L181.0795997619629,17.681926428295867L182.24036642710368,17.68192586730214L183.40113309224446,17.68192553070594L184.56189975738525,17.68192532874818L185.72266642252603,17.681925207573528L186.88343308766682,17.68192513486875L188.04419975280763,17.68192509124586L189.2049664179484,17.681925065072136L190.3657330830892,17.68192504936792L191.52649974822998,17.681925039945384L192.68726641337076,17.68192503429185L193.84803307851155,17.68192503089972L195.00879974365233,17.68192502886447L196.16956640879314,17.681925027643274L197.33033307393393,17.68192502691062L198.4910997390747,17.681925026470964L199.6518664042155,17.68192502620721L200.81263306935628,17.681925026048958L201.97339973449706,17.68192502595403L203.13416639963785,17.681925025897016L204.29493306477863,17.681925025862824L205.45569972991944,17.681925025842332L206.61646639506023,17.681925025830026L207.777233060201,17.681925025822636L208.9379997253418,17.68192502581823L210.09876639048258,17.68192502581556L211.25953305562336,17.681925025813968L212.42029972076415,17.681925025813L213.58106638590496,17.681925025812404L214.74183305104575,17.68192502581209L215.90259971618653,17.681925025811864L217.0633663813273,17.68192502581175L218.2241330464681,17.681925025811665L219.38489971160888,17.681925025811637L220.54566637674967,17.68192502581161L221.70643304189045,17.68192502581161L222.86719970703126,17.68192502581155L224.02796637217205,17.68192502581155L225.18873303731283,17.68192502581155L226.3494997024536,17.68192502581155L227.5102663675944,17.68192502581155L228.67103303273518,17.68192502581155L229.83179969787597,17.68192502581155L230.99256636301678,17.68192502581155L232.15333302815756,17.68192502581155L233.31409969329835,17.68192502581155L234.47486635843913,17.68192502581155L235.6356330235799,17.68192502581155L236.7963996887207,17.68192502581155L237.95716635386148,17.68192502581155L239.11793301900227,17.68192502581155L240.27869968414308,17.68192502581155L241.43946634928386,17.68192502581155L242.60023301442465,17.68192502581155L243.76099967956543,17.68192502581155L244.9217663447062,17.68192502581155L246.082533009847,17.68192502581155L247.24329967498778,17.68192502581155L248.4040663401286,17.68192502581155L249.56483300526938,17.68192502581155L250.72559967041016,17.68192502581155L251.88636633555095,17.68192502581155L253.04713300069173,17.68192502581155L254.2078996658325,17.68192502581155L23.215333302815754,36.68756850799559L24.37609996795654,48.09095459730605L25.53686663309733,54.93298625089231L26.69763329823812,59.03820524304405L27.858399963378908,61.501336638335104L29.019166628519695,62.97921547550972L30.179933293660483,63.865942777814496L31.34069995880127,64.39797915919738L32.50146662394206,63.59795657802508L33.66223328908285,63.11794302932171L34.82299995422363,62.82993490009967L35.983766619364424,62.65713002256646L37.14453328450521,62.55344709604654L38.305299949646,62.4912373401346L39.46606661478678,62.45391148658743L40.626833279927574,62.43151597445912L41.78759994506836,62.418078667182144L42.94836661020915,62.41001628281596L44.10913327534993,62.40517885219623L45.269899940490724,62.40227639382441L46.43066660563151,62.4005349188013L47.5914332707723,62.39949003378743L48.75219993591308,62.39886310277912L49.912966601053874,62.39848694417415L51.07373326619466,62.39826124901113L52.23449993133545,62.39812583191333L53.39526659647624,62.39804458165467L54.556033261617024,62.39799583149946L55.716799926757815,62.39796658140635L56.8775665918986,62.39794903135048L58.03833325703939,62.39793850131696L59.199099922180174,62.39793218329682L60.359866587320965,62.39792839248477L61.52063325246175,62.397926117997514L62.68139991760254,62.397924753305176L63.842166582743324,62.39792393448977L65.00293324788412,61.2786790331985L66.1636999130249,60.607132092423754L67.3244665781657,60.204203927958886L68.48523324330647,59.96244702927997L69.64599990844727,57.57890053432109L70.80676657358805,53.910283817341735L71.96753323872885,49.470621431402606L73.12829990386963,46.80682399983911L74.28906656901042,44.08930113089903L75.4498332341512,40.22029858953093L76.610599899292,36.77964911896055L77.77136656443278,34.71525943661834L78.93213322957357,33.476625627213L80.09289989471435,32.73344534156979L81.25366655985515,32.287537170183896L82.41443322499593,32.019992267352336L83.57519989013672,31.859465325653417L84.7359665552775,31.763149160634043L85.8967332204183,31.705359461622436L87.05749988555908,31.67068564221546L88.21826655069987,31.649881350571263L89.37903321584066,31.637398775584785L90.53979988098145,31.629909230592858L91.70056654612223,31.625415503597736L92.86133321126302,30.50347485739863L94.02209987640381,29.830310469679176L95.1828665415446,29.426411837047482L96.34363320668538,30.303317067470516L97.50439987182617,30.82946020572433L98.66516653696696,30.025901678674586L99.82593320210775,29.543766562444745L100.98669986724853,29.254485492706834L102.14746653238932,29.0809168508641L103.30823319753011,28.976775665758453L104.4689998626709,28.914290954695105L105.62976652781168,28.876800128057056L106.79053319295248,28.854305632074215L107.95129985809326,28.840808934484528L109.11206652323405,28.832710915930704L110.27283318837483,28.82785210479844L111.43359985351563,28.824936818119028L112.59436651865641,28.82318764611142L113.7551331837972,28.82213814290685L114.91589984893798,28.821508440984104L116.07666651407878,28.821130619830456L117.23743317921956,28.82090392713826L118.39819984436035,28.820767911522978L119.55896650950113,28.820686302153774L120.71973317464193,28.820637336532258L121.88049983978271,28.820607957159353L123.0412665049235,28.820590329535605L124.2020331700643,28.82057975296138L125.36279983520508,28.82057340701681L126.52356650034586,27.701325189448056L127.68433316548665,27.02977625890682L128.84509983062745,26.626846900582052L130.00586649576823,26.385089285587213L131.16663316090902,26.240034716590316L132.3273998260498,26.15300197519221L133.4881664911906,26.100782330353297L134.6489331563314,26.06945054344996L135.80969982147215,26.05065147130793L136.97046648661293,26.03937202802277L138.13123315175375,26.032604362051615L139.29199981689453,26.028543762468956L140.45276648203532,26.026107402719333L141.6135331471761,26.02464558686961L142.77429981231688,26.023768497359725L143.9350664774577,26.02324224365381L145.09583314259848,26.02292649143027L146.25659980773926,26.022737040096132L147.41736647288005,26.022623369295673L148.57813313802083,26.02255516681538L149.73889980316162,26.022514245327216L150.8996664683024,26.022489692434306L152.06043313344318,26.02247496069856L153.221199798584,26.022466121657146L154.38196646372478,26.022460818232247L155.54273312886556,26.022457636177364L156.70349979400635,26.022455726944372L157.86426645914713,26.02245458140459L159.02503312428792,26.02245389408074L160.1857997894287,26.022453481686398L161.3465664545695,26.022453234249838L162.5073331197103,26.0224530857879L163.66809978485108,26.022452996710683L164.82886644999186,26.022452943264398L165.98963311513265,26.022452911196638L167.15039978027343,26.022452891955965L168.31116644541422,26.02245288041155L169.471933110555,26.022452873484895L170.6326997756958,26.02245286932896L171.7934664408366,26.02245286683535L172.95423310597738,26.022452865339176L174.11499977111816,26.022452864441476L175.27576643625895,26.022452863902856L176.43653310139973,26.0224528635797L177.59729976654052,26.02245286338581L178.75806643168133,26.02245286326948L179.9188330968221,26.022452863199675L181.0795997619629,26.02245286315778L182.24036642710368,26.022452863132656L183.40113309224446,26.022452863117564L184.56189975738525,26.022452863108498L185.72266642252603,26.02245286310307L186.88343308766682,26.0224528630998L188.04419975280763,26.022452863097868L189.2049664179484,26.02245286309673L190.3657330830892,26.022452863095992L191.52649974822998,26.022452863095566L192.68726641337076,26.02245286309534L193.84803307851155,26.022452863095168L195.00879974365233,26.022452863095083L196.16956640879314,24.903208453093015L197.33033307393393,24.231661807091797L198.4910997390747,23.82873381949102L199.6518664042155,23.586977026930583L200.81263306935628,23.441922951394304L201.97339973449706,23.354890506072564L203.13416639963785,23.30267103887948L204.29493306477863,23.271339358563665L205.45569972991944,23.252540350374147L206.61646639506023,23.241260945460454L207.777233060201,23.23449330251225L208.9379997253418,23.230432716743337L210.09876639048258,23.227996365281967" fill="none"></path></g></g></g></g><g opacity="0.2"><g><g><g><path style="fill: none;" stroke="rgb(255, 112, 67)" stroke-width="2px" d="M23.215333302815754,64.26333005627001L24.37609996795654,64.26333005627001L25.53686663309733,64.26333005627001L26.69763329823812,64.26333005627001L27.858399963378908,66.02880834227518L29.019166628519695,62.49786060963359L23.215333302815754,77.57230797318313L24.37609996795654,71.86845776897215L25.53686663309733,71.86845776897215L26.69763329823812,71.86845776897215L27.858399963378908,71.86845776897215L29.019166628519695,77.57230797318313L30.179933293660483,77.57230797318313L31.34069995880127,80.42423307528864L32.50146662394206,80.42423307528864L33.66223328908285,80.42423307528864L34.82299995422363,77.57230797318313L35.983766619364424,80.42423307528864L37.14453328450521,66.16461640412992L38.305299949646,74.72038287107763L39.46606661478678,69.01654150623543L40.626833279927574,69.01654150623543L41.78759994506836,69.01654150623543L42.94836661020915,66.16461640412992L44.10913327534993,66.16461640412992L45.269899940490724,63.31269130202442L46.43066660563151,63.31269130202442L47.5914332707723,63.31269130202442L48.75219993591308,63.31269130202442L49.912966601053874,63.31269130202442L51.07373326619466,63.31269130202442L52.23449993133545,63.31269130202442L53.39526659647624,63.31269130202442L54.556033261617024,63.31269130202442L23.215333302815754,117.49922846486936L24.37609996795654,117.49922846486936L25.53686663309733,126.05499935150146L26.69763329823812,111.79538268034277L27.858399963378908,97.53577042886845L29.019166628519695,88.97999954223634L30.179933293660483,91.83192464434184L23.215333302815754,148.870383594529L24.37609996795654,146.01846070226568L25.53686663309733,114.64730778244827L26.69763329823812,106.09153689581616L27.858399963378908,106.09153689581616L29.019166628519695,106.09153689581616L30.179933293660483,106.09153689581616L31.34069995880127,106.09153689581616L32.50146662394206,106.09153689581616L33.66223328908285,106.09153689581616L34.82299995422363,106.09153689581616L35.983766619364424,106.09153689581616L37.14453328450521,106.09153689581616L38.305299949646,106.09153689581616L39.46606661478678,106.09153689581616L40.626833279927574,106.09153689581616L41.78759994506836,106.09153689581616L42.94836661020915,106.09153689581616L44.10913327534993,103.23961621339505L45.269899940490724,94.68384532676295L46.43066660563151,71.86845776897215L47.5914332707723,63.31269130202442L48.75219993591308,60.460766199918936L49.912966601053874,60.460766199918936L51.07373326619466,60.460766199918936L52.23449993133545,60.460766199918936L53.39526659647624,60.460766199918936L54.556033261617024,60.460766199918936L55.716799926757815,60.460766199918936L56.8775665918986,60.460766199918936L58.03833325703939,60.460766199918936L59.199099922180174,60.460766199918936L60.359866587320965,60.460766199918936L61.52063325246175,60.460766199918936L62.68139991760254,60.460766199918936L63.842166582743324,60.460766199918936L65.00293324788412,60.460766199918936L66.1636999130249,60.460766199918936L67.3244665781657,60.460766199918936L68.48523324330647,60.460766199918936L69.64599990844727,60.460766199918936L70.80676657358805,60.460766199918936L71.96753323872885,60.460766199918936L73.12829990386963,60.460766199918936L74.28906656901042,60.460766199918936L75.4498332341512,57.608849937182214L76.610599899292,54.7569248350767L77.77136656443278,57.608849937182214L78.93213322957357,57.608849937182214L80.09289989471435,54.7569248350767L81.25366655985515,54.7569248350767L82.41443322499593,54.7569248350767L83.57519989013672,54.7569248350767L84.7359665552775,54.7569248350767L85.8967332204183,54.7569248350767L87.05749988555908,54.7569248350767L88.21826655069987,54.7569248350767L89.37903321584066,54.7569248350767L90.53979988098145,51.904999732971206L91.70056654612223,51.904999732971206L92.86133321126302,49.05307463086572L94.02209987640381,43.349233266023504L95.1828665415446,43.349233266023504L96.34363320668538,40.49730816391801L97.50439987182617,40.49730816391801L98.66516653696696,40.49730816391801L99.82593320210775,37.64538306181251L100.98669986724853,34.79345795970701L102.14746653238932,34.79345795970701L103.30823319753011,34.79345795970701L104.4689998626709,34.79345795970701L105.62976652781168,34.79345795970701L106.79053319295248,34.79345795970701L107.95129985809326,34.79345795970701L109.11206652323405,34.79345795970701L110.27283318837483,34.79345795970701L111.43359985351563,34.79345795970701L112.59436651865641,26.237691492759268L113.7551331837972,26.237691492759268L114.91589984893798,26.237691492759268L116.07666651407878,23.38576639065377L117.23743317921956,23.38576639065377L118.39819984436035,23.38576639065377L119.55896650950113,23.38576639065377L120.71973317464193,23.38576639065377L121.88049983978271,20.533850127917077L123.0412665049235,20.533850127917077L124.2020331700643,20.533850127917077L125.36279983520508,20.533850127917077L126.52356650034586,20.533850127917077L127.68433316548665,20.533850127917077L128.84509983062745,20.533850127917077L130.00586649576823,20.533850127917077L131.16663316090902,20.533850127917077L132.3273998260498,20.533850127917077L133.4881664911906,20.533850127917077L134.6489331563314,20.533850127917077L135.80969982147215,20.533850127917077L136.97046648661293,20.533850127917077L138.13123315175375,20.533850127917077L139.29199981689453,20.533850127917077L140.45276648203532,17.68192502581155L141.6135331471761,17.68192502581155L142.77429981231688,17.68192502581155L143.9350664774577,17.68192502581155L145.09583314259848,17.68192502581155L146.25659980773926,20.533850127917077L147.41736647288005,20.533850127917077L148.57813313802083,20.533850127917077L149.73889980316162,17.68192502581155L150.8996664683024,17.68192502581155L152.06043313344318,17.68192502581155L153.221199798584,17.68192502581155L154.38196646372478,17.68192502581155L155.54273312886556,17.68192502581155L156.70349979400635,17.68192502581155L157.86426645914713,17.68192502581155L159.02503312428792,17.68192502581155L160.1857997894287,17.68192502581155L161.3465664545695,17.68192502581155L162.5073331197103,17.68192502581155L163.66809978485108,17.68192502581155L164.82886644999186,17.68192502581155L165.98963311513265,17.68192502581155L167.15039978027343,17.68192502581155L168.31116644541422,17.68192502581155L169.471933110555,17.68192502581155L170.6326997756958,17.68192502581155L171.7934664408366,17.68192502581155L172.95423310597738,17.68192502581155L174.11499977111816,17.68192502581155L175.27576643625895,17.68192502581155L176.43653310139973,17.68192502581155L177.59729976654052,17.68192502581155L178.75806643168133,17.68192502581155L179.9188330968221,17.68192502581155L181.0795997619629,17.68192502581155L182.24036642710368,17.68192502581155L183.40113309224446,17.68192502581155L184.56189975738525,17.68192502581155L185.72266642252603,17.68192502581155L186.88343308766682,17.68192502581155L188.04419975280763,17.68192502581155L189.2049664179484,17.68192502581155L190.3657330830892,17.68192502581155L191.52649974822998,17.68192502581155L192.68726641337076,17.68192502581155L193.84803307851155,17.68192502581155L195.00879974365233,17.68192502581155L196.16956640879314,17.68192502581155L197.33033307393393,17.68192502581155L198.4910997390747,17.68192502581155L199.6518664042155,17.68192502581155L200.81263306935628,17.68192502581155L201.97339973449706,17.68192502581155L203.13416639963785,17.68192502581155L204.29493306477863,17.68192502581155L205.45569972991944,17.68192502581155L206.61646639506023,17.68192502581155L207.777233060201,17.68192502581155L208.9379997253418,17.68192502581155L210.09876639048258,17.68192502581155L211.25953305562336,17.68192502581155L212.42029972076415,17.68192502581155L213.58106638590496,17.68192502581155L214.74183305104575,17.68192502581155L215.90259971618653,17.68192502581155L217.0633663813273,17.68192502581155L218.2241330464681,17.68192502581155L219.38489971160888,17.68192502581155L220.54566637674967,17.68192502581155L221.70643304189045,17.68192502581155L222.86719970703126,17.68192502581155L224.02796637217205,17.68192502581155L225.18873303731283,17.68192502581155L226.3494997024536,17.68192502581155L227.5102663675944,17.68192502581155L228.67103303273518,17.68192502581155L229.83179969787597,17.68192502581155L230.99256636301678,17.68192502581155L232.15333302815756,17.68192502581155L233.31409969329835,17.68192502581155L234.47486635843913,17.68192502581155L235.6356330235799,17.68192502581155L236.7963996887207,17.68192502581155L237.95716635386148,17.68192502581155L239.11793301900227,17.68192502581155L240.27869968414308,17.68192502581155L241.43946634928386,17.68192502581155L242.60023301442465,17.68192502581155L243.76099967956543,17.68192502581155L244.9217663447062,17.68192502581155L246.082533009847,17.68192502581155L247.24329967498778,17.68192502581155L248.4040663401286,17.68192502581155L249.56483300526938,17.68192502581155L250.72559967041016,17.68192502581155L251.88636633555095,17.68192502581155L253.04713300069173,17.68192502581155L254.2078996658325,17.68192502581155L23.215333302815754,65.19603373127167L24.37609996795654,65.19603373127167L25.53686663309733,65.19603373127167L26.69763329823812,65.19603373127167L27.858399963378908,65.19603373127167L29.019166628519695,65.19603373127167L30.179933293660483,65.19603373127167L31.34069995880127,65.19603373127167L32.50146662394206,62.39792270626664L33.66223328908285,62.39792270626664L34.82299995422363,62.39792270626664L35.983766619364424,62.39792270626664L37.14453328450521,62.39792270626664L38.305299949646,62.39792270626664L39.46606661478678,62.39792270626664L40.626833279927574,62.39792270626664L41.78759994506836,62.39792270626664L42.94836661020915,62.39792270626664L44.10913327534993,62.39792270626664L45.269899940490724,62.39792270626664L46.43066660563151,62.39792270626664L47.5914332707723,62.39792270626664L48.75219993591308,62.39792270626664L49.912966601053874,62.39792270626664L51.07373326619466,62.39792270626664L52.23449993133545,62.39792270626664L53.39526659647624,62.39792270626664L54.556033261617024,62.39792270626664L55.716799926757815,62.39792270626664L56.8775665918986,62.39792270626664L58.03833325703939,62.39792270626664L59.199099922180174,62.39792270626664L60.359866587320965,62.39792270626664L61.52063325246175,62.39792270626664L62.68139991760254,62.39792270626664L63.842166582743324,62.39792270626664L65.00293324788412,59.59981168126161L66.1636999130249,59.59981168126161L67.3244665781657,59.59981168126161L68.48523324330647,59.59981168126161L69.64599990844727,54.0035807918828L70.80676657358805,48.40735874187274L71.96753323872885,42.81112785249391L73.12829990386963,42.81112785249391L74.28906656901042,40.01301682748888L75.4498332341512,34.41679477747883L76.610599899292,31.618674913105025L77.77136656443278,31.618674913105025L78.93213322957357,31.618674913105025L80.09289989471435,31.618674913105025L81.25366655985515,31.618674913105025L82.41443322499593,31.618674913105025L83.57519989013672,31.618674913105025L84.7359665552775,31.618674913105025L85.8967332204183,31.618674913105025L87.05749988555908,31.618674913105025L88.21826655069987,31.618674913105025L89.37903321584066,31.618674913105025L90.53979988098145,31.618674913105025L91.70056654612223,31.618674913105025L92.86133321126302,28.82056388809997L94.02209987640381,28.82056388809997L95.1828665415446,28.82056388809997L96.34363320668538,31.618674913105025L97.50439987182617,31.618674913105025L98.66516653696696,28.82056388809997L99.82593320210775,28.82056388809997L100.98669986724853,28.82056388809997L102.14746653238932,28.82056388809997L103.30823319753011,28.82056388809997L104.4689998626709,28.82056388809997L105.62976652781168,28.82056388809997L106.79053319295248,28.82056388809997L107.95129985809326,28.82056388809997L109.11206652323405,28.82056388809997L110.27283318837483,28.82056388809997L111.43359985351563,28.82056388809997L112.59436651865641,28.82056388809997L113.7551331837972,28.82056388809997L114.91589984893798,28.82056388809997L116.07666651407878,28.82056388809997L117.23743317921956,28.82056388809997L118.39819984436035,28.82056388809997L119.55896650950113,28.82056388809997L120.71973317464193,28.82056388809997L121.88049983978271,28.82056388809997L123.0412665049235,28.82056388809997L124.2020331700643,28.82056388809997L125.36279983520508,28.82056388809997L126.52356650034586,26.02245286309494L127.68433316548665,26.02245286309494L128.84509983062745,26.02245286309494L130.00586649576823,26.02245286309494L131.16663316090902,26.02245286309494L132.3273998260498,26.02245286309494L133.4881664911906,26.02245286309494L134.6489331563314,26.02245286309494L135.80969982147215,26.02245286309494L136.97046648661293,26.02245286309494L138.13123315175375,26.02245286309494L139.29199981689453,26.02245286309494L140.45276648203532,26.02245286309494L141.6135331471761,26.02245286309494L142.77429981231688,26.02245286309494L143.9350664774577,26.02245286309494L145.09583314259848,26.02245286309494L146.25659980773926,26.02245286309494L147.41736647288005,26.02245286309494L148.57813313802083,26.02245286309494L149.73889980316162,26.02245286309494L150.8996664683024,26.02245286309494L152.06043313344318,26.02245286309494L153.221199798584,26.02245286309494L154.38196646372478,26.02245286309494L155.54273312886556,26.02245286309494L156.70349979400635,26.02245286309494L157.86426645914713,26.02245286309494L159.02503312428792,26.02245286309494L160.1857997894287,26.02245286309494L161.3465664545695,26.02245286309494L162.5073331197103,26.02245286309494L163.66809978485108,26.02245286309494L164.82886644999186,26.02245286309494L165.98963311513265,26.02245286309494L167.15039978027343,26.02245286309494L168.31116644541422,26.02245286309494L169.471933110555,26.02245286309494L170.6326997756958,26.02245286309494L171.7934664408366,26.02245286309494L172.95423310597738,26.02245286309494L174.11499977111816,26.02245286309494L175.27576643625895,26.02245286309494L176.43653310139973,26.02245286309494L177.59729976654052,26.02245286309494L178.75806643168133,26.02245286309494L179.9188330968221,26.02245286309494L181.0795997619629,26.02245286309494L182.24036642710368,26.02245286309494L183.40113309224446,26.02245286309494L184.56189975738525,26.02245286309494L185.72266642252603,26.02245286309494L186.88343308766682,26.02245286309494L188.04419975280763,26.02245286309494L189.2049664179484,26.02245286309494L190.3657330830892,26.02245286309494L191.52649974822998,26.02245286309494L192.68726641337076,26.02245286309494L193.84803307851155,26.02245286309494L195.00879974365233,26.02245286309494L196.16956640879314,23.224341838089913L197.33033307393393,23.224341838089913L198.4910997390747,23.224341838089913L199.6518664042155,23.224341838089913L200.81263306935628,23.224341838089913L201.97339973449706,23.224341838089913L203.13416639963785,23.224341838089913L204.29493306477863,23.224341838089913L205.45569972991944,23.224341838089913L206.61646639506023,23.224341838089913L207.777233060201,23.224341838089913L208.9379997253418,23.224341838089913L210.09876639048258,23.224341838089913" fill="none"></path></g></g></g></g></g></g><g transform="translate(51, 177)" clip-path="url(#clip_1)"><clipPath id="clip_1"><rect width="278" height="22"></rect></clipPath><g><g><line x1="0" y1="0" x2="0" y2="5" style="visibility: inherit;" fill="rgb(0, 0, 0)" stroke="rgb(204, 204, 204)" stroke-width="1px"></line><line x1="23.215333302815754" y1="0" x2="23.215333302815754" y2="5" style="visibility: inherit;" fill="rgb(0, 0, 0)" stroke="rgb(204, 204, 204)" stroke-width="1px"></line><line x1="46.43066660563151" y1="0" x2="46.43066660563151" y2="5" style="visibility: inherit;" fill="rgb(0, 0, 0)" stroke="rgb(204, 204, 204)" stroke-width="1px"></line><line x1="69.64599990844727" y1="0" x2="69.64599990844727" y2="5" style="visibility: inherit;" fill="rgb(0, 0, 0)" stroke="rgb(204, 204, 204)" stroke-width="1px"></line><line x1="92.86133321126302" y1="0" x2="92.86133321126302" y2="5" style="visibility: inherit;" fill="rgb(0, 0, 0)" stroke="rgb(204, 204, 204)" stroke-width="1px"></line><line x1="116.07666651407878" y1="0" x2="116.07666651407878" y2="5" style="visibility: inherit;" fill="rgb(0, 0, 0)" stroke="rgb(204, 204, 204)" stroke-width="1px"></line><line x1="139.29199981689453" y1="0" x2="139.29199981689453" y2="5" style="visibility: inherit;" fill="rgb(0, 0, 0)" stroke="rgb(204, 204, 204)" stroke-width="1px"></line><line x1="162.5073331197103" y1="0" x2="162.5073331197103" y2="5" style="visibility: inherit;" fill="rgb(0, 0, 0)" stroke="rgb(204, 204, 204)" stroke-width="1px"></line><line x1="185.72266642252603" y1="0" x2="185.72266642252603" y2="5" style="visibility: inherit;" fill="rgb(0, 0, 0)" stroke="rgb(204, 204, 204)" stroke-width="1px"></line><line x1="208.9379997253418" y1="0" x2="208.9379997253418" y2="5" style="visibility: inherit;" fill="rgb(0, 0, 0)" stroke="rgb(204, 204, 204)" stroke-width="1px"></line><line x1="232.15333302815756" y1="0" x2="232.15333302815756" y2="5" style="visibility: inherit;" fill="rgb(0, 0, 0)" stroke="rgb(204, 204, 204)" stroke-width="1px"></line><line x1="255.3686663309733" y1="0" x2="255.3686663309733" y2="5" style="visibility: inherit;" fill="rgb(0, 0, 0)" stroke="rgb(204, 204, 204)" stroke-width="1px"></line><line x1="278.58399963378906" y1="0" x2="278.58399963378906" y2="5" style="visibility: inherit;" fill="rgb(0, 0, 0)" stroke="rgb(204, 204, 204)" stroke-width="1px"></line></g><g transform="translate(0, 8)"><text style="text-anchor: middle; visibility: hidden; font-family: &quot;Helvetica Neue&quot;, sans-serif; font-size: 12px; font-weight: 200;" x="0" y="0" dx="0em" dy="0.95em" fill="rgb(50, 49, 63)" stroke="none" stroke-width="1px">-20</text><text style="text-anchor: middle; visibility: inherit; font-family: &quot;Helvetica Neue&quot;, sans-serif; font-size: 12px; font-weight: 200;" x="23.215333302815754" y="0" dx="0em" dy="0.95em" fill="rgb(50, 49, 63)" stroke="none" stroke-width="1px">0</text><text style="text-anchor: middle; visibility: hidden; font-family: &quot;Helvetica Neue&quot;, sans-serif; font-size: 12px; font-weight: 200;" x="46.43066660563151" y="0" dx="0em" dy="0.95em" fill="rgb(50, 49, 63)" stroke="none" stroke-width="1px">20</text><text style="text-anchor: middle; visibility: inherit; font-family: &quot;Helvetica Neue&quot;, sans-serif; font-size: 12px; font-weight: 200;" x="69.64599990844727" y="0" dx="0em" dy="0.95em" fill="rgb(50, 49, 63)" stroke="none" stroke-width="1px">40</text><text style="text-anchor: middle; visibility: hidden; font-family: &quot;Helvetica Neue&quot;, sans-serif; font-size: 12px; font-weight: 200;" x="92.86133321126302" y="0" dx="0em" dy="0.95em" fill="rgb(50, 49, 63)" stroke="none" stroke-width="1px">60</text><text style="text-anchor: middle; visibility: inherit; font-family: &quot;Helvetica Neue&quot;, sans-serif; font-size: 12px; font-weight: 200;" x="116.07666651407878" y="0" dx="0em" dy="0.95em" fill="rgb(50, 49, 63)" stroke="none" stroke-width="1px">80</text><text style="text-anchor: middle; visibility: hidden; font-family: &quot;Helvetica Neue&quot;, sans-serif; font-size: 12px; font-weight: 200;" x="139.29199981689453" y="0" dx="0em" dy="0.95em" fill="rgb(50, 49, 63)" stroke="none" stroke-width="1px">100</text><text style="text-anchor: middle; visibility: inherit; font-family: &quot;Helvetica Neue&quot;, sans-serif; font-size: 12px; font-weight: 200;" x="162.5073331197103" y="0" dx="0em" dy="0.95em" fill="rgb(50, 49, 63)" stroke="none" stroke-width="1px">120</text><text style="text-anchor: middle; visibility: hidden; font-family: &quot;Helvetica Neue&quot;, sans-serif; font-size: 12px; font-weight: 200;" x="185.72266642252603" y="0" dx="0em" dy="0.95em" fill="rgb(50, 49, 63)" stroke="none" stroke-width="1px">140</text><text style="text-anchor: middle; visibility: inherit; font-family: &quot;Helvetica Neue&quot;, sans-serif; font-size: 12px; font-weight: 200;" x="208.9379997253418" y="0" dx="0em" dy="0.95em" fill="rgb(50, 49, 63)" stroke="none" stroke-width="1px">160</text><text style="text-anchor: middle; visibility: hidden; font-family: &quot;Helvetica Neue&quot;, sans-serif; font-size: 12px; font-weight: 200;" x="232.15333302815756" y="0" dx="0em" dy="0.95em" fill="rgb(50, 49, 63)" stroke="none" stroke-width="1px">180</text><text style="text-anchor: middle; visibility: inherit; font-family: &quot;Helvetica Neue&quot;, sans-serif; font-size: 12px; font-weight: 200;" x="255.3686663309733" y="0" dx="0em" dy="0.95em" fill="rgb(50, 49, 63)" stroke="none" stroke-width="1px">200</text><text style="text-anchor: middle; visibility: hidden; font-family: &quot;Helvetica Neue&quot;, sans-serif; font-size: 12px; font-weight: 200;" x="278.58399963378906" y="0" dx="0em" dy="0.95em" fill="rgb(50, 49, 63)" stroke="none" stroke-width="1px">220</text></g><line x1="0" y1="0" x2="278.58399963378906" y2="0" fill="rgb(0, 0, 0)" stroke="rgb(204, 204, 204)" stroke-width="1px"></line></g></g></g></g></svg>